<svg id="visual" viewBox="0 0 900 200" width="900" height="350" xmlns="http://www.w3.org/2000/svg" xmlns:xlink="http://www.w3.org/1999/xlink" version="1.1">

  
  <path d="m0,157l10.7,-18.08c13.6,-7.08 44,-22.23 71.3,-25.56c27.3,-3.33 47.7,-21.84 83.8,-23.25c36.1,-1.42 61.3,-13.74 82.4,3.42c21.1,17.16 48.5,35.81 76.8,24.81c28.3,-11 55.7,17.35 84,10.77c28.3,-6.58 59.7,-12.1 83,3.31c23.3,15.41 56.7,19.75 81,9.18c24.3,-10.57 54.6,-32.06 80.8,-26.14c26.2,5.92 54.2,-24.76 83.4,-9.09c29.2,15.67 53.5,-4.32 80.8,-2.65c27.3,1.67 54.7,6.98 68.3,16.14l13.7,5.51l0,-36.63l-13.7,-8.33c-13.6,-8.33 -41,-8.33 -68.3,-11.24c-27.3,-2.91 -54.7,7.91 -81.8,12.49c-27.2,4.58 -54.2,2.91 -81.4,2.91c-27.1,0 -54.5,1.67 -81.8,8.33c-27.3,6.66 -54.7,18.32 -82,11.66c-27.3,-6.66 -54.7,-31.64 -82,-36.22c-27.3,-4.58 -54.7,11.24 -82,13.32c-27.3,2.08 -54.7,-9.57 -81.8,-12.9c-27.2,-3.33 -54.2,1.67 -81.4,3.33c-27.1,1.67 -54.5,0 -81.8,9.16c-27.3,9.16 -54.7,29.14 -68.3,39.13l-13.7,9.99l0,26.64z" fill="#C0594D" id="svg_3"/>
 
  <path d="m0,141l13.7,-11.68c13.6,-11.68 41,-35.04 68.3,-45.75c27.3,-10.71 54.7,-8.76 81.8,-10.71c27.2,-1.95 54.2,-7.79 81.4,-3.89c27.1,3.89 54.5,17.52 81.8,15.09c27.3,-2.43 54.7,-20.93 82,-15.57c27.3,5.35 54.7,34.55 82,42.34c27.3,7.79 54.7,-5.84 82,-13.63c27.3,-7.79 54.7,-9.73 81.8,-9.73c27.2,0 54.2,1.95 81.4,-3.41c27.1,-5.35 54.5,-18.01 81.8,-14.6c27.3,3.41 54.7,22.87 68.3,32.61l13.7,9.73l0,-51.59l-13.7,-4.38c-13.6,-4.38 -41,-13.14 -68.3,-13.63c-27.3,-0.49 -54.7,7.3 -81.8,11.68c-27.2,4.38 -54.2,-16.65 -81.4,-17.62c-27.1,-0.97 -54.5,18.11 -81.8,22c-27.3,3.89 -54.7,14.6 -82,8.76c-27.3,-5.84 -54.7,-28.23 -82,-29.2c-27.3,-0.97 -54.7,19.47 -82,20.44c-27.3,0.97 -54.7,-17.52 -81.8,-23.85c-27.2,-6.33 -54.2,-0.49 -81.4,0.49c-27.1,0.97 -54.5,-2.92 -81.8,6.33c-27.3,9.25 -54.7,31.63 -68.3,42.83l-13.7,11.19l0,45.75z" fill="#D6614B" id="svg_2" transform="matrix(1 0 0 1 0 0)"/>


  <path d="m0,118l13.7,-11.5c13.6,-11.5 41,-34.5 68.3,-44c27.3,-9.5 54.7,-5.5 81.8,-6.5c27.2,-1 54.2,-7 81.4,-0.5c27.1,6.5 54.5,25.5 81.8,24.5c27.3,-1 54.7,-22 82,-21c27.3,1 54.7,24 82,30c27.3,6 54.7,-5 82,-9c27.3,-4 54.7,-1 81.8,0c27.2,1 54.2,0 81.4,-4.5c27.1,-4.5 54.5,-12.5 81.8,-12c27.3,0.5 54.7,9.5 68.3,14l13.7,4.5l0,-82l-13.7,0c-13.6,0 -41,0 -68.3,0c-27.3,0 -54.7,0 -81.8,0c-27.2,0 -54.2,0 -81.4,0c-27.1,0 -54.5,0 -81.8,0c-27.3,0 -54.7,0 -82,0c-27.3,0 -54.7,0 -82,0c-27.3,0 -54.7,0 -82,0c-27.3,0 -54.7,0 -81.8,0c-27.2,0 -54.2,0 -81.4,0c-27.1,0 -54.5,0 -81.8,0c-27.3,0 -54.7,0 -68.3,0l-13.7,0l0,118z" fill="#EABE86" id="svg_1"/>

</svg>