<?xml version="1.0" encoding="utf-8"?><svg xmlns="http://www.w3.org/2000/svg" xmlns:xlink="http://www.w3.org/1999/xlink" width="1223" height="577" preserveAspectRatio="xMidYMid" viewBox="0 0 1223 577" style="z-index:1;margin-right:-1.33333px;display:block;background-repeat-y:initial;background-repeat-x:initial;background-color:rgb(255, 255, 255);animation-play-state:paused" ><g transform="translate(611.5,288.5) scale(1,1) translate(-611.5,-288.5)" style="transform:matrix(1, 0, 0, 1, 0, 0);animation-play-state:paused" ><linearGradient id="lg-0.1729369752729084" x1="0" x2="1" y1="0" y2="0" style="animation-play-state:paused" ><stop stop-color="#ff00ff" offset="0" style="animation-play-state:paused" ></stop>

  
<stop stop-color="#00ffff" offset="1" style="animation-play-state:paused" ></stop></linearGradient>
<path d="M 0 0 L 0 539.624 Q 122.3 503.604 244.6 481.861 T 489.2 423.002 T 733.8 386.025 T 978.4 340.972 T 1223 223.991 L 1223 0 Z" fill="url(#lg-0.1729369752729084)" opacity="0.4" style="opacity:0.4;animation-play-state:paused" ></path>
<path d="M 0 0 L 0 502.465 Q 122.3 496.63 244.6 459.581 T 489.2 416.879 T 733.8 348.042 T 978.4 255.71 T 1223 275.182 L 1223 0 Z" fill="url(#lg-0.1729369752729084)" opacity="0.4" style="opacity:0.4;animation-play-state:paused" ></path>
<path d="M 0 0 L 0 547.871 Q 122.3 546.161 244.6 495.978 T 489.2 438.621 T 733.8 325.121 T 978.4 313.418 T 1223 256.277 L 1223 0 Z" fill="url(#lg-0.1729369752729084)" opacity="0.4" style="opacity:0.4;animation-play-state:paused" ></path>
<path d="M 0 0 L 0 492.334 Q 122.3 520.98 244.6 485.507 T 489.2 447.986 T 733.8 387.464 T 978.4 260.837 T 1223 281.34 L 1223 0 Z" fill="url(#lg-0.1729369752729084)" opacity="0.4" style="opacity:0.4;animation-play-state:paused" ></path>
<path d="M 0 0 L 0 555.005 Q 122.3 552.647 244.6 510.761 T 489.2 417.363 T 733.8 389.952 T 978.4 319.109 T 1223 273.13 L 1223 0 Z" fill="url(#lg-0.1729369752729084)" opacity="0.4" style="opacity:0.4;animation-play-state:paused" ></path></g></svg>